<svg width="40" height="40" viewBox="0 0 40 40" fill="none" xmlns="http://www.w3.org/2000/svg">
<g clip-path="url(#clip0_1364_2297)">
<path d="M10.6667 15.3335H11C12.2833 15.3335 13.3333 16.3835 13.3333 17.6668V29.3335C13.3333 30.6168 12.2833 31.6668 11 31.6668H10.6667C9.38334 31.6668 8.33334 30.6168 8.33334 29.3335V17.6668C8.33334 16.3835 9.38334 15.3335 10.6667 15.3335ZM20 8.3335C21.2833 8.3335 22.3333 9.3835 22.3333 10.6668V29.3335C22.3333 30.6168 21.2833 31.6668 20 31.6668C18.7167 31.6668 17.6667 30.6168 17.6667 29.3335V10.6668C17.6667 9.3835 18.7167 8.3335 20 8.3335ZM29.3333 21.6668C30.6167 21.6668 31.6667 22.7168 31.6667 24.0002V29.3335C31.6667 30.6168 30.6167 31.6668 29.3333 31.6668C28.05 31.6668 27 30.6168 27 29.3335V24.0002C27 22.7168 28.05 21.6668 29.3333 21.6668Z" fill="#4A4A4A"/>
</g>
<defs>
<clipPath id="clip0_1364_2297">
<rect width="40" height="40" fill="white"/>
</clipPath>
</defs>
</svg>
