<svg width="28" height="28" viewBox="0 0 28 28" fill="none" xmlns="http://www.w3.org/2000/svg">
<g clip-path="url(#clip0_1411_2848)">
<path d="M21.35 6.66175C20.895 6.20675 20.16 6.20675 19.705 6.66175L14 12.3551L8.295 6.65009C7.84 6.19509 7.105 6.19509 6.65 6.65009C6.195 7.10509 6.195 7.84009 6.65 8.29509L12.355 14.0001L6.65 19.7051C6.195 20.1601 6.195 20.8951 6.65 21.3501C7.105 21.8051 7.84 21.8051 8.295 21.3501L14 15.6451L19.705 21.3501C20.16 21.8051 20.895 21.8051 21.35 21.3501C21.805 20.8951 21.805 20.1601 21.35 19.7051L15.645 14.0001L21.35 8.29509C21.7933 7.85175 21.7933 7.10509 21.35 6.66175Z" fill="black"/>
</g>
<defs>
<clipPath id="clip0_1411_2848">
<rect width="28" height="28" fill="white"/>
</clipPath>
</defs>
</svg>
