<svg width="44" height="44" viewBox="0 0 44 44" fill="none" xmlns="http://www.w3.org/2000/svg">
<g clip-path="url(#clip0_533_5195)">
<path d="M28.4167 10.0833C30.4333 10.0833 32.0833 8.43333 32.0833 6.41667C32.0833 4.4 30.4333 2.75 28.4167 2.75C26.4 2.75 24.75 4.4 24.75 6.41667C24.75 8.43333 26.4 10.0833 28.4167 10.0833ZM9.16667 22C4.03333 22 0 26.0333 0 31.1667C0 36.3 4.03333 40.3333 9.16667 40.3333C14.3 40.3333 18.3333 36.3 18.3333 31.1667C18.3333 26.0333 14.3 22 9.16667 22ZM9.16667 37.5833C5.68333 37.5833 2.75 34.65 2.75 31.1667C2.75 27.6833 5.68333 24.75 9.16667 24.75C12.65 24.75 15.5833 27.6833 15.5833 31.1667C15.5833 34.65 12.65 37.5833 9.16667 37.5833ZM19.8 19.25L24.2 14.85L25.6667 16.3167C28.05 18.7 31.1667 20.1667 35.0167 20.1667V16.5C32.2667 16.5 30.0667 15.4 28.4167 13.75L24.9333 10.2667C24.0167 9.53333 23.1 9.16667 22 9.16667C20.9 9.16667 19.9833 9.53333 19.4333 10.2667L11.5683 18.15L20.1667 25.6667V34.8333H23.8333V23.4667L19.8 19.25ZM34.8333 22C29.7 22 25.6667 26.0333 25.6667 31.1667C25.6667 36.3 29.7 40.3333 34.8333 40.3333C39.9667 40.3333 44 36.3 44 31.1667C44 26.0333 39.9667 22 34.8333 22ZM34.8333 37.5833C31.35 37.5833 28.4167 34.65 28.4167 31.1667C28.4167 27.6833 31.35 24.75 34.8333 24.75C38.3167 24.75 41.25 27.6833 41.25 31.1667C41.25 34.65 38.3167 37.5833 34.8333 37.5833Z" fill="#4A4A4A"/>
</g>
<defs>
<clipPath id="clip0_533_5195">
<rect width="44" height="44" fill="white"/>
</clipPath>
</defs>
</svg>
