<svg width="44" height="44" viewBox="0 0 44 44" fill="none" xmlns="http://www.w3.org/2000/svg">
<g clip-path="url(#clip0_533_5194)">
<path d="M24.7317 10.0467C26.7483 10.0467 28.3983 8.39671 28.3983 6.38005C28.3983 4.36338 26.7483 2.71338 24.7317 2.71338C22.715 2.71338 21.065 4.36338 21.065 6.38005C21.065 8.39671 22.715 10.0467 24.7317 10.0467ZM18.1317 35.53L19.965 27.4634L23.815 31.13V42.13H27.4817V28.38L23.6317 24.7134L24.7317 19.2134C27.115 21.9634 30.7817 23.7967 34.815 23.7967V20.13C31.3317 20.13 28.3983 18.2967 26.9317 15.73L25.0983 12.7967C24.365 11.6967 23.265 10.9634 21.9817 10.9634C21.4317 10.9634 21.065 11.1467 20.515 11.1467L10.9817 15.18V23.7967H14.6483V17.5634L17.9483 16.28L15.015 31.13L6.03167 29.2967L5.29834 32.9634L18.1317 35.53Z" fill="#4A4A4A"/>
</g>
<defs>
<clipPath id="clip0_533_5194">
<rect width="44" height="44" fill="white"/>
</clipPath>
</defs>
</svg>
