<svg width="15" height="13" viewBox="0 0 15 13" fill="none" xmlns="http://www.w3.org/2000/svg">
<path d="M8.12169 11.8871L8.12008 11.8886C7.77274 12.2039 7.23677 12.2038 6.8895 11.8839L6.8871 11.8817L6.80918 11.8109L6.8083 11.8101C4.93846 10.1183 3.43543 8.75541 2.40481 7.47789C1.38147 6.20939 0.876064 5.08708 0.916296 3.88221C0.953507 2.83183 1.49295 1.82682 2.35549 1.23956L2.35576 1.23937C3.98379 0.12935 6.01317 0.634972 7.11978 1.93021L7.49993 2.37516L7.88007 1.93021C8.98772 0.633758 11.0165 0.123516 12.643 1.23864L12.6444 1.23956C13.507 1.8269 14.0465 2.8321 14.0836 3.88264L14.0836 3.88304C14.127 5.08718 13.6222 6.20908 12.5976 7.47975C11.5686 8.75597 10.069 10.1185 8.20554 11.8115L8.19253 11.8234L8.19078 11.8249L8.12169 11.8871Z" stroke="#E00000"/>
</svg>
