<svg width="27" height="27" viewBox="0 0 27 27" fill="none" xmlns="http://www.w3.org/2000/svg">
<path d="M20.5875 6.42376C20.4834 6.31947 20.3598 6.23672 20.2237 6.18027C20.0876 6.12382 19.9417 6.09476 19.7944 6.09476C19.647 6.09476 19.5011 6.12382 19.3651 6.18027C19.229 6.23672 19.1053 6.31947 19.0013 6.42376L13.5 11.9138L7.99876 6.41251C7.8946 6.30835 7.77095 6.22573 7.63487 6.16936C7.49878 6.113 7.35293 6.08398 7.20563 6.08398C7.05834 6.08398 6.91248 6.113 6.7764 6.16936C6.64031 6.22573 6.51666 6.30835 6.41251 6.41251C6.30835 6.51666 6.22573 6.64031 6.16936 6.7764C6.113 6.91248 6.08398 7.05834 6.08398 7.20563C6.08398 7.35293 6.113 7.49878 6.16936 7.63487C6.22573 7.77095 6.30835 7.8946 6.41251 7.99876L11.9138 13.5L6.41251 19.0013C6.30835 19.1054 6.22573 19.2291 6.16936 19.3651C6.113 19.5012 6.08398 19.6471 6.08398 19.7944C6.08398 19.9417 6.113 20.0875 6.16936 20.2236C6.22573 20.3597 6.30835 20.4834 6.41251 20.5875C6.51666 20.6917 6.64031 20.7743 6.7764 20.8306C6.91248 20.887 7.05834 20.916 7.20563 20.916C7.35293 20.916 7.49878 20.887 7.63487 20.8306C7.77095 20.7743 7.8946 20.6917 7.99876 20.5875L13.5 15.0863L19.0013 20.5875C19.1054 20.6917 19.2291 20.7743 19.3651 20.8306C19.5012 20.887 19.6471 20.916 19.7944 20.916C19.9417 20.916 20.0875 20.887 20.2236 20.8306C20.3597 20.7743 20.4834 20.6917 20.5875 20.5875C20.6917 20.4834 20.7743 20.3597 20.8306 20.2236C20.887 20.0875 20.916 19.9417 20.916 19.7944C20.916 19.6471 20.887 19.5012 20.8306 19.3651C20.7743 19.2291 20.6917 19.1054 20.5875 19.0013L15.0863 13.5L20.5875 7.99876C21.015 7.57126 21.015 6.85126 20.5875 6.42376V6.42376Z" fill="#DA3838"/>
</svg>
