<svg width="29" height="29" viewBox="0 0 29 29" fill="none" xmlns="http://www.w3.org/2000/svg">
<path d="M14.5 0C6.496 0 0 6.496 0 14.5C0 22.504 6.496 29 14.5 29C22.504 29 29 22.504 29 14.5C29 6.496 22.504 0 14.5 0ZM14.5 4.35C16.907 4.35 18.85 6.293 18.85 8.7C18.85 11.107 16.907 13.05 14.5 13.05C12.093 13.05 10.15 11.107 10.15 8.7C10.15 6.293 12.093 4.35 14.5 4.35ZM14.5 24.94C10.875 24.94 7.6705 23.084 5.8 20.271C5.8435 17.3855 11.6 15.805 14.5 15.805C17.3855 15.805 23.1565 17.3855 23.2 20.271C21.3295 23.084 18.125 24.94 14.5 24.94Z" fill="#E5E5E5"/>
</svg>
