<?xml version="1.0" encoding="UTF-8"?>
<svg id="_레이어_1" data-name="레이어 1" xmlns="http://www.w3.org/2000/svg" width="29.354" height="17.062" viewBox="0 0 29.354 17.062">
  <defs>
    <style>
      .cls-1 {
        fill: none;
      }

      .cls-2 {
        fill: #009245;
      }
    </style>
  </defs>
  <g>
    <path class="cls-2" d="M29.163,16.672H1.969c-.829,0-1.5-.671-1.5-1.5s.671-1.5,1.5-1.5H25.676l-.538-3.56c-.124-.819,.439-1.583,1.259-1.707,.813-.127,1.583,.439,1.707,1.259l1.06,7.008Z"/>
    <g>
      <path class="cls-2" d="M21.449,10.094c.074,0,.135-.06,.135-.135v-.402c0-4.358-3.77-7.892-8.42-7.892S4.743,5.736,4.743,10.094H21.449Z"/>
      <path class="cls-2" d="M21.449,11.594H3.243v-1.5C3.243,4.713,7.786,.167,13.164,.167c5.47,0,9.92,4.213,9.92,9.392v.401c0,.901-.733,1.635-1.635,1.635Zm-15.027-3h13.583c-.505-3.068-3.38-5.428-6.842-5.428-3.176,0-6.016,2.402-6.742,5.428Z"/>
    </g>
  </g>
  <rect class="cls-1" width="29.354" height="17.062"/>
</svg>