<?xml version="1.0" encoding="UTF-8"?><svg id="_레이어_1" xmlns="http://www.w3.org/2000/svg" xmlns:xlink="http://www.w3.org/1999/xlink" viewBox="0 0 185.38 177.15"><defs><style>.cls-1,.cls-2{fill:#fff;}.cls-1,.cls-3{stroke-width:1.5px;}.cls-1,.cls-3,.cls-4{stroke:#231815;}.cls-1,.cls-3,.cls-4,.cls-5,.cls-6,.cls-7,.cls-8,.cls-9{stroke-miterlimit:10;}.cls-10{fill:#ed8d26;}.cls-11{fill:#c57945;}.cls-3,.cls-4,.cls-12,.cls-8,.cls-9{fill:none;}.cls-4,.cls-8,.cls-9{stroke-linecap:round;}.cls-13{fill:#408938;}.cls-5{fill:#82c259;}.cls-5,.cls-7{stroke:#3f8438;}.cls-14{fill:#ecd05c;}.cls-15{clip-path:url(#clippath);}.cls-6{stroke:#efefef;stroke-width:.75px;}.cls-6,.cls-16{fill:#231815;}.cls-17{fill:#efefef;}.cls-7{fill:#e9e184;}.cls-8{stroke:#f1e79d;}.cls-8,.cls-9{stroke-width:3px;}.cls-18{fill:#e3e4e4;}.cls-9{stroke:#fff;}</style><clipPath id="clippath"><rect class="cls-12" y="127.11" width="185.38" height="50.04"/></clipPath></defs><circle class="cls-14" cx="92.69" cy="88" r="88"/><g><g><g><path class="cls-8" d="M33.33,34.39s-9.44,6.33-.42,17.59c9.02,11.26-3.4,18.68-3.4,18.68"/><path class="cls-8" d="M46.37,34.39s-9.44,6.33-.42,17.59c9.02,11.26-3.4,18.68-3.4,18.68"/><path class="cls-8" d="M59.42,34.39s-9.44,6.33-.42,17.59c9.02,11.26-3.4,18.68-3.4,18.68"/></g><g><path class="cls-8" d="M127.42,34.39s-9.44,6.33-.42,17.59c9.02,11.26-3.4,18.68-3.4,18.68"/><path class="cls-8" d="M140.47,34.39s-9.44,6.33-.42,17.59c9.02,11.26-3.4,18.68-3.4,18.68"/><path class="cls-8" d="M153.51,34.39s-9.44,6.33-.42,17.59c9.02,11.26-3.4,18.68-3.4,18.68"/></g></g><g><g><path class="cls-8" d="M152.05,82.6s9.44,6.33,.42,17.59c-9.02,11.26,3.4,18.68,3.4,18.68"/><path class="cls-8" d="M139.01,82.6s9.44,6.33,.42,17.59c-9.02,11.26,3.4,18.68,3.4,18.68"/><path class="cls-8" d="M125.97,82.6s9.44,6.33,.42,17.59c-9.02,11.26,3.4,18.68,3.4,18.68"/></g><g><path class="cls-8" d="M57.96,82.6s9.44,6.33,.42,17.59c-9.02,11.26,3.4,18.68,3.4,18.68"/><path class="cls-8" d="M44.92,82.6s9.44,6.33,.42,17.59c-9.02,11.26,3.4,18.68,3.4,18.68"/><path class="cls-8" d="M31.87,82.6s9.44,6.33,.42,17.59c-9.02,11.26,3.4,18.68,3.4,18.68"/></g></g></g><ellipse class="cls-13" cx="92.69" cy="129.15" rx="42.37" ry="46.46"/><g><rect class="cls-7" x="76.88" y="98.73" width="31.62" height="23.11"/><g><g><polygon class="cls-2" points="116.36 46.92 69.23 46.92 73.23 25.98 112.36 25.98 116.36 46.92"/><g><circle class="cls-2" cx="77.23" cy="20.8" r="10.68"/><circle class="cls-2" cx="92.69" cy="17.58" r="10.68"/><circle class="cls-2" cx="108.15" cy="20.8" r="10.68"/></g></g><g><circle class="cls-5" cx="92.69" cy="73.35" r="35.66"/><g><circle class="cls-5" cx="68.75" cy="116" r="15.16"/><circle class="cls-5" cx="116.63" cy="116" r="15.16"/></g></g></g><g><g><g><g><circle class="cls-1" cx="77.8" cy="78.53" r="12.84"/><rect class="cls-16" x="78.07" y="73.05" width="6.13" height="10.02" rx="3.06" ry="3.06"/></g><g><circle class="cls-1" cx="107.58" cy="78.53" r="12.84"/><rect class="cls-16" x="101.18" y="73.05" width="6.13" height="10.02" rx="3.06" ry="3.06" transform="translate(208.49 156.13) rotate(-180)"/></g><line class="cls-3" x1="90.64" y1="78.53" x2="94.75" y2="78.53"/></g><g><path class="cls-4" d="M76.66,62.47c.57-1.25,2.04-2.13,3.77-2.13s3.2,.89,3.77,2.13"/><path class="cls-4" d="M101.18,62.47c.57-1.25,2.04-2.13,3.77-2.13s3.2,.89,3.77,2.13"/></g></g><circle class="cls-16" cx="92.69" cy="89.13" r="1.13"/><g><path class="cls-4" d="M96.9,94.04c-.78,1.01-2.61,1.72-4.75,1.72s-3.93-.69-4.72-1.68"/><path class="cls-4" d="M97.63,91.78s-1.94,2.66,.33,5.45"/></g></g></g><g><g><rect class="cls-17" x="23.66" y="58.81" width="16.57" height="21.09" rx="2.37" ry="2.37" transform="translate(100.55 102.89) rotate(140.78)"/><g><rect class="cls-16" x="34.12" y="59.97" width="2.23" height="13.4" rx="1.12" ry="1.12" transform="translate(104.69 96.05) rotate(140.78)"/><rect class="cls-16" x="30.83" y="62.65" width="2.23" height="13.4" rx="1.12" ry="1.12" transform="translate(100.55 102.89) rotate(140.78)"/><rect class="cls-16" x="27.54" y="65.34" width="2.23" height="13.4" rx="1.12" ry="1.12" transform="translate(96.41 109.74) rotate(140.78)"/></g><rect class="cls-17" x="44.28" y="74.07" width="2.88" height="24.34" transform="translate(135.67 124.14) rotate(140.78)"/><rect class="cls-10" x="56.43" y="91.19" width="6.26" height="24" rx="3.13" ry="3.13" transform="translate(170.94 145.48) rotate(140.78)"/></g><g><g><rect class="cls-17" x="139.26" y="68.39" width="2.88" height="30.69" transform="translate(83.58 -69.71) rotate(38.83)"/><rect class="cls-10" x="121.96" y="91.13" width="6.26" height="24" rx="3.13" ry="3.13" transform="translate(92.3 -55.64) rotate(38.83)"/></g><g><path class="cls-17" d="M144.59,63.44c3.88-4.82,11.19-5.37,16.33-1.23,5.14,4.14,6.16,11.4,2.29,16.22"/><path class="cls-6" d="M162.99,78.14c-1.34,1.66-6.47-.25-11.46-4.27-4.99-4.02-7.96-8.62-6.62-10.28"/><path class="cls-6" d="M144.85,63.68c1.34-1.66,6.47,.25,11.46,4.27,4.99,4.02,7.96,8.62,6.62,10.28"/></g></g></g><g class="cls-15"><circle class="cls-11" cx="92.69" cy="88" r="88"/></g><g><g><rect class="cls-18" x="49.27" y="150.18" width="86.84" height="3.95" rx="1.98" ry="1.98"/><path class="cls-18" d="M51.91,149.37c0-22.52,18.26-40.78,40.78-40.78s40.78,18.26,40.78,40.78"/><rect class="cls-18" x="90.84" y="104.53" width="3.71" height="6.28" rx="1.85" ry="1.85"/></g><path class="cls-9" d="M77.37,116.7c1.25-.6,2.53-1.12,3.86-1.57"/><path class="cls-9" d="M60.09,135.05c2.67-6.57,7.28-12.14,13.12-16"/></g></svg>