<?xml version="1.0" encoding="UTF-8"?><svg id="_레이어_1" xmlns="http://www.w3.org/2000/svg" viewBox="0 0 176 176"><defs><style>.cls-1{fill:#fff;}.cls-1,.cls-2,.cls-3,.cls-4,.cls-5,.cls-6,.cls-7,.cls-8,.cls-9{stroke-miterlimit:10;}.cls-1,.cls-2,.cls-4,.cls-6{stroke:#231815;}.cls-1,.cls-4{stroke-width:1.5px;}.cls-10{fill:#f1e79d;}.cls-11{fill:#da4777;}.cls-2,.cls-3,.cls-4,.cls-5,.cls-6,.cls-9{fill:none;}.cls-2,.cls-3,.cls-5{stroke-width:2px;}.cls-2,.cls-3,.cls-6,.cls-9{stroke-linecap:round;}.cls-3{stroke:#408938;}.cls-5{stroke:#fff;}.cls-12{fill:#408938;}.cls-7{fill:#82c259;}.cls-7,.cls-8{stroke:#3f8438;}.cls-13{fill:#393a3a;}.cls-14{fill:#b34996;}.cls-15{fill:#f2dfec;}.cls-8{fill:#e9e184;}.cls-9{stroke:#debc3d;stroke-width:4px;}.cls-16{fill:#e6c047;}.cls-17{fill:#231815;}</style></defs><circle class="cls-15" cx="88" cy="88" r="88"/><g><circle class="cls-16" cx="52.13" cy="64.89" r="31.01"/><path class="cls-10" d="M51.25,79.59c-1.62,0-3.18-.13-4.66-.4s-2.83-.66-4.04-1.17l.64-4.89c1.48,.63,2.93,1.11,4.35,1.44,1.42,.33,2.77,.49,4.03,.49,1.61,0,2.83-.29,3.66-.86,.83-.57,1.24-1.41,1.24-2.51,0-1.44-.82-2.53-2.46-3.28l-4.45-2.12c-2-.94-3.54-2.1-4.62-3.48-1.08-1.38-1.62-2.97-1.62-4.77,0-2.5,.8-4.43,2.39-5.8s3.84-2.05,6.76-2.05c1.83,0,3.51,.3,5.04,.9,1.54,.6,2.94,1.5,4.22,2.71l-3.32,3.66c-1.03-.91-2.04-1.6-3.01-2.06-.97-.46-1.94-.69-2.91-.69-1.26,0-2.24,.29-2.94,.86-.7,.57-1.05,1.4-1.05,2.49,0,.75,.24,1.41,.72,1.98,.48,.57,1.16,1.08,2.06,1.54l4.01,1.99c2.05,1.02,3.63,2.2,4.72,3.53,1.09,1.34,1.64,2.88,1.64,4.62,0,2.56-.88,4.52-2.65,5.86s-4.35,2.01-7.74,2.01Zm-.83-26.73v-8.72h4.17v8.72h-4.17Zm0,32.77v-8.68h4.17v8.68h-4.17Z"/></g><g><g><ellipse class="cls-12" cx="99.02" cy="116.64" rx="31.39" ry="37.36"/><path class="cls-3" d="M117.08,19.77s-3.21-.08-4.57,2.68c-.94,1.91-.64-7.29-.64-7.29"/><path class="cls-7" d="M72.79,55.8c-1.52-17.42,11.36-32.77,28.78-34.3s32.77,11.36,34.3,28.78-10.81,32.1-27.66,34.17c-.29,1.22-1.19,5.13-.78,5.52,0,0-5.83-2.69-13.63,.36,0,0,.02-4.5,.36-7.31-11.53-3.91-20.25-14.32-21.38-27.23Z"/><path class="cls-7" d="M114.2,93.05s12.19,10.98,28.7,8.54c1.28-.19,2.59-.21,3.85,.1,2.77,.66,6.82,2.62,6.12,8.4-.44,3.68-2.59,6.97-5.69,9-2.33,1.53-5.57,2.87-9.45,2.47-2.13-.22-4.16-1.03-5.96-2.2-2.89-1.88-8.82-6.05-14.65-11.87"/><path class="cls-7" d="M119.35,136.89s4.86,5.69,13.02,10.43c5.58,3.25,.79,10.66-6.48,12.18-6.85,1.44-23.7-1.26-23.08-13.64l16.55-8.97Z"/><path class="cls-7" d="M97.18,146.21s2.32,15.23-15.57,13.51-10.34-13.51-10.34-13.51c0,0,5.49-8.02,10.66-11.17l15.26,11.17Z"/><path class="cls-7" d="M85.69,93.05s-12.19,10.98-28.7,8.54c-1.28-.19-2.59-.21-3.85,.1-2.77,.66-6.82,2.62-6.12,8.4,.44,3.68,2.59,6.97,5.69,9,2.33,1.53,5.57,2.87,9.45,2.47,2.13-.22,4.16-1.03,5.96-2.2,2.89-1.88,8.82-6.05,14.65-11.87"/><ellipse class="cls-8" cx="100.02" cy="117.09" rx="25.29" ry="30.1"/><g><g><line class="cls-9" x1="111.38" y1="100.86" x2="89.94" y2="100.86"/><line class="cls-9" x1="114.34" y1="117.2" x2="86.98" y2="117.2"/><line class="cls-9" x1="111.38" y1="133.54" x2="89.94" y2="133.54"/></g><line class="cls-9" x1="100.66" y1="100.86" x2="100.66" y2="133.54"/></g><g><g><circle class="cls-17" cx="106.86" cy="65.5" r="1.1"/><path class="cls-6" d="M108.87,70.47c-.59,.85-1.81,1.31-3.1,1.07s-2.26-1.1-2.51-2.1"/></g><g><circle class="cls-1" cx="97.35" cy="54.76" r="9.7"/><circle class="cls-1" cx="119.49" cy="58.85" r="9.7"/><line class="cls-4" x1="106.89" y1="56.52" x2="109.95" y2="57.09"/><g><path class="cls-6" d="M96.59,54.11c.26,1,1.24,1.85,2.53,2.08s2.5-.25,3.08-1.1"/><path class="cls-6" d="M114.86,57.27c.26,1,1.24,1.85,2.53,2.08s2.5-.25,3.08-1.1"/></g></g><g><path class="cls-6" d="M98.5,41.93c.45-.93,1.58-1.58,2.88-1.55,.98,.02,1.84,.42,2.39,1.01"/><path class="cls-6" d="M122.88,46.3c-.1-1.03-.93-2.03-2.17-2.46-.93-.32-1.87-.25-2.59,.12"/></g></g></g><polygon class="cls-14" points="61.71 147.03 21.39 131.45 35.89 102.36 70.54 115.75 61.71 147.03"/><polygon class="cls-13" points="83.65 148.37 41.03 141.14 49.44 109.75 86.06 115.97 83.65 148.37"/><line class="cls-2" x1="58.05" y1="117.2" x2="63.54" y2="101.89"/><line class="cls-2" x1="74.45" y1="119.29" x2="69.68" y2="100.86"/><line class="cls-2" x1="42.48" y1="113.02" x2="59.16" y2="101.27"/><polygon class="cls-11" points="129.59 143.91 154.75 140.74 149.68 114.78 128.06 117.5 129.59 143.91"/><line class="cls-2" x1="133.58" y1="101.27" x2="134.8" y2="121.64"/><line class="cls-2" x1="139.79" y1="101.27" x2="144.15" y2="120.67"/><g><path class="cls-5" d="M57.65,123.52c1.33-1.03,3.07-1.54,4.86-1.25,3.45,.54,5.8,3.78,5.26,7.23s-3.78,5.8-7.23,5.26c-1.8-.28-3.3-1.3-4.25-2.7"/><path class="cls-5" d="M73.84,126.07c-.95-1.39-2.45-2.41-4.24-2.69-3.45-.54-6.68,1.81-7.23,5.26s1.81,6.68,5.26,7.23c1.8,.28,3.54-.22,4.87-1.26"/></g></g><path class="cls-16" d="M144.57,60.99c0,5.76,3.58,10.43,8.01,10.43-4.42,0-8.01,4.67-8.01,10.43,0-5.76-3.58-10.43-8.01-10.43,4.42,0,8.01-4.67,8.01-10.43Z"/><path class="cls-16" d="M137.27,77.02c0,4.24,2.64,7.68,5.89,7.68-3.26,0-5.89,3.44-5.89,7.68,0-4.24-2.64-7.68-5.89-7.68,3.26,0,5.89-3.44,5.89-7.68Z"/><path class="cls-16" d="M146.98,85.8c0,3.06,1.9,5.54,4.25,5.54-2.35,0-4.25,2.48-4.25,5.54,0-3.06-1.9-5.54-4.25-5.54,2.35,0,4.25-2.48,4.25-5.54Z"/></svg>