<?xml version="1.0" encoding="UTF-8"?><svg id="_레이어_1" xmlns="http://www.w3.org/2000/svg" viewBox="0 0 176 176"><defs><style>.cls-1{fill:#fff;}.cls-2{fill:#ed8d26;}.cls-3{stroke:#408938;stroke-width:2px;}.cls-3,.cls-4,.cls-5,.cls-6,.cls-7{stroke-miterlimit:10;}.cls-3,.cls-4,.cls-7{fill:none;stroke-linecap:round;}.cls-4{stroke:#231815;}.cls-8{fill:#bc3331;}.cls-9{fill:#408938;}.cls-10{fill:#323334;}.cls-5{fill:#82c259;}.cls-5,.cls-6{stroke:#3f8438;}.cls-11{fill:#b8601f;}.cls-12{fill:#b6e0e7;}.cls-13{fill:#2ba0c5;}.cls-6{fill:#e9e184;}.cls-7{stroke:#debc3d;stroke-width:4px;}.cls-14{fill:#231815;}.cls-15{fill:#e3e4e4;}</style></defs><circle class="cls-12" cx="88" cy="88" r="88"/><g><path class="cls-15" d="M70.11,77.13l35.81-12.19c9.1-3.1,18.94-3.34,28.18-.68l22.91,6.58-49.06,26.4-37.83-20.1Z"/><path class="cls-13" d="M147.66,125.17l19.24-13.17-16.41-5.99-7.31,5c-.37-.33-.75-.66-1.15-.97-13.49-10.49-82.72-62.33-112.8-45.67,0,0-10.88,6.24-16.54,15.63-.38,.63-.69,1.28-.94,1.96"/><path class="cls-15" d="M161.79,132.29l-10.19-9.76s.02-.02,.02-.03l-.09-.03-.02-.02h-.01S12.72,80.02,12.72,80.02c-1.51,2.21-1.93,4.87-1.3,7.43,3.19,13.01,22.83,44.53,129.6,41.29,0,0,2.2-.45,4.67-1.55l5.73,5.49,10.36-.39Z"/><path class="cls-10" d="M16.75,74.61l32.6,10.19,3.2-8.52-25.42-10.56s-7.33,4.98-10.38,8.89Z"/></g><g><g><circle class="cls-14" cx="45.85" cy="150.08" r="2.53"/><circle class="cls-14" cx="62.51" cy="150.08" r="2.53"/></g><g><rect class="cls-14" x="43.65" y="100.63" width="21.06" height="2.86" rx="1.43" ry="1.43"/><g><rect class="cls-14" x="47.61" y="102.85" width="2.25" height="18.69"/><rect class="cls-14" x="58.5" y="102.85" width="2.25" height="18.69"/></g></g><g><rect class="cls-2" x="40.45" y="117.41" width="27.45" height="31.43" rx="4.23" ry="4.23"/><g><rect class="cls-11" x="46.39" y="122.7" width="1.62" height="20.85" rx=".81" ry=".81"/><rect class="cls-11" x="53.37" y="122.7" width="1.62" height="20.85" rx=".81" ry=".81"/><rect class="cls-11" x="60.35" y="122.7" width="1.62" height="20.85" rx=".81" ry=".81"/></g></g></g><path class="cls-1" d="M50.81,40.45c0-.06,0-.11,0-.16h0c0-3.74-3.03-6.76-6.76-6.76h-2.29c-3.74,0-6.76,3.03-6.76,6.76h0s-1.78,0-1.78,0c-3.74,0-6.76,3.03-6.76,6.76h0c0,3.74,3.03,6.76,6.76,6.76h16.11c3.74,0,6.76-3.03,6.76-6.76h0c0-3.23-2.27-5.93-5.29-6.6Z"/><path class="cls-1" d="M73.29,21.96s0-.08,0-.12h0c0-2.81-2.28-5.09-5.09-5.09h-1.72c-2.81,0-5.09,2.28-5.09,5.09h0s-1.34,0-1.34,0c-2.81,0-5.09,2.28-5.09,5.09h0c0,2.81,2.28,5.09,5.09,5.09h12.12c2.81,0,5.09-2.28,5.09-5.09h0c0-2.43-1.7-4.46-3.98-4.96Z"/><path class="cls-3" d="M87.53,15.95s3.19-.36,4.79,2.28c1.1,1.82,0-7.32,0-7.32"/><ellipse class="cls-9" cx="112.43" cy="111.58" rx="31.39" ry="37.36"/><path class="cls-5" d="M134.79,47.99c0-17.49-14.17-31.66-31.66-31.66s-31.66,14.17-31.66,31.66,13.57,31.03,30.53,31.63c.4,1.19,1.63,5,1.26,5.43,0,0,5.58-3.19,13.6-.83,0,0-.41-4.49-1-7.25,11.14-4.9,18.93-16.03,18.93-28.99Z"/><path class="cls-5" d="M97.25,87.99s-12.19,10.98-28.7,8.54c-1.28-.19-2.59-.21-3.85,.1-2.77,.66-6.82,2.62-6.12,8.4,.44,3.68,2.59,6.97,5.69,9,2.33,1.53,5.57,2.87,9.45,2.47,2.13-.22,4.16-1.03,5.96-2.2,2.89-1.88,8.82-6.05,14.65-11.87"/><path class="cls-5" d="M92.11,131.84s-4.86,5.69-13.02,10.43c-5.58,3.25-.79,10.66,6.48,12.18,6.85,1.44,23.7-1.26,23.08-13.64l-16.55-8.97Z"/><path class="cls-5" d="M114.28,141.16s-2.32,15.23,15.57,13.51,10.34-13.51,10.34-13.51c0,0-5.49-8.02-10.66-11.17l-15.26,11.17Z"/><path class="cls-5" d="M121.51,95.29s8.12-14.25,2.21-29.86c-.46-1.21-.75-2.49-.73-3.79,.06-2.84,1.11-7.22,6.9-7.78,3.69-.35,7.36,1.04,10.01,3.63,1.99,1.95,4,4.83,4.44,8.71,.24,2.13-.12,4.28-.88,6.29-1.22,3.22-4.02,9.91-8.47,16.84,0,0-5.78,8.04-8.59,10.85l-4.89-4.9"/><ellipse class="cls-6" cx="111.43" cy="112.04" rx="25.29" ry="30.1"/><g><g><line class="cls-7" x1="100.07" y1="95.8" x2="121.52" y2="95.8"/><line class="cls-7" x1="97.11" y1="112.14" x2="124.48" y2="112.14"/><line class="cls-7" x1="100.07" y1="128.48" x2="121.52" y2="128.48"/></g><line class="cls-7" x1="110.8" y1="95.8" x2="110.8" y2="128.48"/></g><circle class="cls-14" cx="99.54" cy="61.18" r="1.1"/><path class="cls-8" d="M98.33,66.51s2.1-1.76,7.59-1.84c0,0,.2,5.97-2.8,6.98,0,0-3.56-.68-4.79-5.14Z"/><path class="cls-14" d="M115.98,59.57l-6.34,1.55c-3.16,.77-6.44-1.12-7.64-4.41l-2-5.51c-1.41-3.88,.63-8.08,4.36-9l7.58-1.85c3.73-.91,7.48,1.88,8.02,5.97l.77,5.82c.46,3.47-1.58,6.66-4.74,7.43Z"/><path class="cls-14" d="M92.01,65.19l-6.34,1.55c-3.16,.77-6.44-1.12-7.64-4.41l-2-5.51c-1.41-3.88,.63-8.08,4.36-9l7.58-1.85c3.73-.91,7.48,1.88,8.02,5.97l.77,5.82c.46,3.47-1.58,6.66-4.74,7.43Z"/><rect class="cls-14" x="94.97" y="50.31" width="5.91" height="2.95" transform="translate(-9.5 24.73) rotate(-13.74)"/><path class="cls-4" d="M100.8,41.72s1.19-3.84,5.96-5.96"/><path class="cls-4" d="M90.72,44.15s-2.64-3.03-7.86-3.05"/></svg>