<?xml version="1.0" encoding="UTF-8"?><svg id="_레이어_1" xmlns="http://www.w3.org/2000/svg" xmlns:xlink="http://www.w3.org/1999/xlink" viewBox="0 0 185.38 177.15"><defs><style>.cls-1,.cls-2{fill:#fff;}.cls-1,.cls-3,.cls-4,.cls-5,.cls-6,.cls-7,.cls-8,.cls-9{stroke-miterlimit:10;}.cls-1,.cls-3,.cls-4,.cls-7{stroke:#231815;}.cls-1,.cls-4{stroke-width:1.5px;}.cls-3{stroke-width:.25px;}.cls-3,.cls-10{fill:#231815;}.cls-11{fill:#f9d1d7;}.cls-12{clip-path:url(#clippath-2);}.cls-4,.cls-5,.cls-6,.cls-7,.cls-9,.cls-13{fill:none;}.cls-5{stroke-width:2px;}.cls-5,.cls-6,.cls-9{stroke:#f4dd24;}.cls-14{fill:#bd3230;}.cls-15{fill:#f093a5;opacity:.76;}.cls-16{clip-path:url(#clippath-1);}.cls-7,.cls-9{stroke-linecap:round;}.cls-17{fill:#408938;}.cls-8{fill:#82c259;stroke:#3f8438;}.cls-18{fill:#393a3a;}.cls-19{fill:#e9e184;}.cls-20{fill:#c73231;}.cls-21{clip-path:url(#clippath);}.cls-22{fill:#f4dd24;}</style><clipPath id="clippath"><circle class="cls-13" cx="92.69" cy="88" r="88"/></clipPath><clipPath id="clippath-1"><path class="cls-13" d="M65.88,17.99l3,28.15h47.62l3-28.15c-29.53-9.97-53.62,0-53.62,0Z"/></clipPath><clipPath id="clippath-2"><rect class="cls-13" y="127.11" width="185.38" height="50.04"/></clipPath></defs><circle class="cls-11" cx="92.69" cy="88" r="88"/><g class="cls-21"><g><g><rect class="cls-15" x="29.85" y="45.24" width="21.55" height="39.47"/><rect class="cls-15" x="55.88" y="45.24" width="21.55" height="39.47"/><rect class="cls-15" x="81.91" y="45.24" width="21.55" height="39.47"/><rect class="cls-15" x="107.95" y="45.24" width="21.55" height="39.47"/><rect class="cls-15" x="133.98" y="45.24" width="21.55" height="39.47"/><rect class="cls-15" x="160.01" y="45.24" width="21.55" height="39.47"/><rect class="cls-15" x="3.81" y="45.24" width="21.55" height="39.47"/></g><g><rect class="cls-15" x="29.85" y="1.41" width="21.55" height="39.47"/><rect class="cls-15" x="55.88" y="1.41" width="21.55" height="39.47"/><rect class="cls-15" x="81.91" y="1.41" width="21.55" height="39.47"/><rect class="cls-15" x="107.95" y="1.41" width="21.55" height="39.47"/><rect class="cls-15" x="133.98" y="1.41" width="21.55" height="39.47"/><rect class="cls-15" x="160.01" y="1.41" width="21.55" height="39.47"/><rect class="cls-15" x="3.81" y="1.41" width="21.55" height="39.47"/></g><g><rect class="cls-15" x="29.85" y="89.06" width="21.55" height="39.47"/><rect class="cls-15" x="55.88" y="89.06" width="21.55" height="39.47"/><rect class="cls-15" x="81.91" y="89.06" width="21.55" height="39.47"/><rect class="cls-15" x="107.95" y="89.06" width="21.55" height="39.47"/><rect class="cls-15" x="133.98" y="89.06" width="21.55" height="39.47"/><rect class="cls-15" x="160.01" y="89.06" width="21.55" height="39.47"/><rect class="cls-15" x="3.81" y="89.06" width="21.55" height="39.47"/></g></g></g><ellipse class="cls-17" cx="92.69" cy="129.77" rx="42.37" ry="46.46"/><g><ellipse class="cls-19" cx="92.69" cy="137.2" rx="30.62" ry="36.36"/><g><g><circle class="cls-8" cx="92.69" cy="73.35" r="35.66"/><g><g><g><g><circle class="cls-1" cx="77.8" cy="78.53" r="12.84"/><rect class="cls-10" x="78.07" y="73.05" width="6.13" height="10.02" rx="3.06" ry="3.06"/></g><g><circle class="cls-1" cx="107.58" cy="78.53" r="12.84"/><rect class="cls-10" x="101.18" y="73.05" width="6.13" height="10.02" rx="3.06" ry="3.06" transform="translate(208.49 156.13) rotate(180)"/></g><line class="cls-4" x1="90.64" y1="78.53" x2="94.75" y2="78.53"/></g><g><path class="cls-7" d="M76.66,62.47c.57-1.25,2.04-2.13,3.77-2.13s3.2,.89,3.77,2.13"/><path class="cls-7" d="M101.18,62.47c.57-1.25,2.04-2.13,3.77-2.13s3.2,.89,3.77,2.13"/></g></g><circle class="cls-10" cx="92.69" cy="89.13" r="1.13"/><path class="cls-7" d="M97.43,94.04c-.78,1.01-2.61,1.72-4.75,1.72s-3.93-.69-4.72-1.68"/></g></g><g><path class="cls-20" d="M65.88,17.99l3,28.15h47.62l3-28.15c-29.53-9.97-53.62,0-53.62,0Z"/><g class="cls-16"><g><path class="cls-5" d="M116.83,45.5s-3.52-2.72-24.14-2.72-24.14,2.72-24.14,2.72"/><path class="cls-5" d="M117.8,39.13s-3.66-2.72-25.11-2.72-25.11,2.72-25.11,2.72"/></g></g><ellipse class="cls-18" cx="92.69" cy="47.56" rx="25.28" ry="3.96"/></g></g></g><g class="cls-12"><circle class="cls-14" cx="92.69" cy="88" r="88"/></g><g><circle class="cls-8" cx="63.75" cy="116" r="15.16"/><circle class="cls-8" cx="121.63" cy="116" r="15.16"/></g><g><rect class="cls-2" x="59.75" y="115.77" width="65.89" height="30.88"/><g><path class="cls-3" d="M72.1,135.24s-.03,.05-.09,.05c-.07,0-.19,0-.34-.02s-.27-.02-.34-.02c-.08,0-.2,0-.37,.02s-.28,.02-.37,.02c-.09,0-.16-.05-.21-.15-.12-.27-.48-1.09-1.07-2.47-.06-.14-.2-.23-.43-.26-.05,0-.23,0-.53,0-.54,0-.86,0-.96,.02-.08,.01-.12,.11-.12,.3,0,.27,.01,.68,.04,1.23s.04,.95,.04,1.22c0,.08-.04,.12-.12,.12s-.2,0-.35-.03-.28-.03-.36-.03c-.07,0-.17,0-.3,.02s-.24,.02-.3,.02c-.1,0-.15-.04-.15-.13,0-.43,.02-1.08,.06-1.95s.06-1.52,.06-1.95c0-1.23-.04-2.55-.13-3.95v-.09c0-.08,.07-.12,.24-.12,.34,0,.84,0,1.51-.03s1.17-.03,1.5-.03c.87,0,1.56,.21,2.09,.62,.58,.46,.87,1.11,.87,1.95,0,.58-.08,1.03-.23,1.37-.16,.35-.47,.69-.91,1-.07,.05-.11,.1-.11,.15,0,.05,.23,.57,.7,1.56s.7,1.51,.7,1.57Zm-1.61-5.31c0-.71-.2-1.18-.61-1.42-.3-.18-.84-.26-1.62-.26-.63,0-.96,.05-.97,.15-.03,.21-.04,.78-.04,1.69v1.12s.04,.02,.08,.02c.07,0,.19,.02,.35,.03,.37,.02,.77,.03,1.2,.03,1.08,0,1.62-.46,1.62-1.37Z"/><path class="cls-3" d="M78.44,134.11c0,.06-.02,.15-.05,.27-.04,.15-.06,.24-.06,.27-.01,.14-.04,.35-.08,.62-.02,.07-.07,.11-.15,.11-.04,0-.11,0-.22-.02-.48-.07-1.22-.11-2.23-.11-.29,0-.71,0-1.29,.02s-1,.02-1.29,.02c-.13,0-.19-.06-.19-.17,0-.44,.02-1.09,.07-1.97s.07-1.53,.07-1.97-.02-1.28-.07-2.49c0-.31-.03-.78-.06-1.4v-.08c0-.09,.04-.13,.15-.13,.27,0,.68,0,1.23,.02s.96,.02,1.23,.02,.65,0,1.17-.02,.91-.02,1.17-.02c.18,0,.28,.06,.3,.17,.08,.52,.12,.84,.12,.96,0,.09-.04,.13-.13,.13-.33,0-.83-.02-1.51-.06s-1.18-.06-1.52-.06c-.32,0-.52,.04-.61,.13s-.13,.3-.13,.64v.87c0,.24,0,.38,.02,.42,.04,.12,.14,.18,.3,.18,.05,0,.11,0,.2,0h.2c.77,0,1.45-.01,2.06-.04,.24,0,.52-.03,.84-.06,.08,0,.12,.03,.12,.11,0,.12-.01,.32-.04,.57s-.04,.45-.04,.58c0,.07-.06,.11-.18,.11-.05,0-.22-.01-.52-.04-.22-.02-.71-.04-1.48-.04-.64,0-1.05,0-1.22,.02-.16,.01-.25,.09-.27,.25,0-.03,0,.12,0,.45v.87c0,.41,.06,.66,.19,.76,.1,.08,.34,.12,.73,.12h.64c.27,0,1.04-.05,2.3-.15h.09c.08-.01,.12,.04,.12,.14Z"/><path class="cls-3" d="M84.04,127.66c-.08,.13-.19,.32-.32,.59-.04,.12-.12,.29-.23,.52-.02,.04-.05,.05-.09,.05,0,0-.18-.07-.57-.21s-.69-.21-.94-.21c-.72,0-1.08,.32-1.08,.95,0,.35,.25,.66,.76,.92,.85,.44,1.32,.7,1.41,.76,.5,.4,.76,.95,.76,1.63,0,.88-.35,1.56-1.04,2.07-.62,.45-1.38,.68-2.29,.68-.42,0-.65-.05-.68-.14-.02-.15-.05-.37-.11-.65-.03-.12-.08-.29-.15-.53-.01-.04-.02-.07-.02-.1,0-.05,.03-.08,.09-.08,.09,0,.24,0,.43,.03s.34,.03,.44,.03c1.21,0,1.82-.39,1.82-1.17,0-.38-.24-.71-.73-1-.89-.51-1.35-.77-1.37-.79-.49-.4-.74-.93-.74-1.61,0-.73,.24-1.31,.71-1.75,.46-.42,1.07-.63,1.8-.63,.31,0,.67,.05,1.08,.15,.44,.11,.77,.25,1,.41,.02,.02,.04,.04,.06,.08Z"/><path class="cls-3" d="M90.5,134.11c0,.06-.02,.15-.05,.27-.04,.15-.06,.24-.06,.27-.01,.14-.04,.35-.08,.62-.02,.07-.07,.11-.15,.11-.04,0-.11,0-.22-.02-.48-.07-1.22-.11-2.23-.11-.29,0-.71,0-1.29,.02s-1,.02-1.29,.02c-.13,0-.19-.06-.19-.17,0-.44,.02-1.09,.07-1.97s.07-1.53,.07-1.97-.02-1.28-.07-2.49c0-.31-.03-.78-.06-1.4v-.08c0-.09,.04-.13,.15-.13,.27,0,.68,0,1.23,.02s.96,.02,1.23,.02,.65,0,1.17-.02,.91-.02,1.17-.02c.18,0,.28,.06,.3,.17,.08,.52,.12,.84,.12,.96,0,.09-.04,.13-.13,.13-.33,0-.83-.02-1.51-.06s-1.18-.06-1.52-.06c-.32,0-.52,.04-.61,.13s-.13,.3-.13,.64v.87c0,.24,0,.38,.02,.42,.04,.12,.14,.18,.3,.18,.05,0,.11,0,.2,0h.2c.77,0,1.45-.01,2.06-.04,.24,0,.52-.03,.84-.06,.08,0,.12,.03,.12,.11,0,.12-.01,.32-.04,.57s-.04,.45-.04,.58c0,.07-.06,.11-.18,.11-.05,0-.22-.01-.52-.04-.22-.02-.71-.04-1.48-.04-.64,0-1.05,0-1.22,.02-.16,.01-.25,.09-.27,.25,0-.03,0,.12,0,.45v.87c0,.41,.06,.66,.19,.76,.1,.08,.34,.12,.73,.12h.64c.27,0,1.04-.05,2.3-.15h.09c.08-.01,.12,.04,.12,.14Z"/><path class="cls-3" d="M97.74,135.24s-.03,.05-.09,.05c-.07,0-.19,0-.34-.02s-.27-.02-.34-.02c-.08,0-.2,0-.37,.02s-.28,.02-.37,.02c-.09,0-.16-.05-.21-.15-.12-.27-.48-1.09-1.07-2.47-.06-.14-.2-.23-.43-.26-.05,0-.23,0-.53,0-.54,0-.86,0-.96,.02-.08,.01-.12,.11-.12,.3,0,.27,.01,.68,.04,1.23s.04,.95,.04,1.22c0,.08-.04,.12-.12,.12s-.2,0-.35-.03-.28-.03-.36-.03c-.07,0-.17,0-.3,.02s-.24,.02-.3,.02c-.1,0-.15-.04-.15-.13,0-.43,.02-1.08,.06-1.95s.06-1.52,.06-1.95c0-1.23-.04-2.55-.13-3.95v-.09c0-.08,.07-.12,.24-.12,.34,0,.84,0,1.51-.03s1.17-.03,1.5-.03c.87,0,1.56,.21,2.09,.62,.58,.46,.87,1.11,.87,1.95,0,.58-.08,1.03-.23,1.37-.16,.35-.47,.69-.91,1-.07,.05-.11,.1-.11,.15,0,.05,.23,.57,.7,1.56s.7,1.51,.7,1.57Zm-1.61-5.31c0-.71-.2-1.18-.61-1.42-.3-.18-.84-.26-1.62-.26-.63,0-.96,.05-.97,.15-.03,.21-.04,.78-.04,1.69v1.12s.04,.02,.08,.02c.07,0,.19,.02,.35,.03,.37,.02,.77,.03,1.2,.03,1.08,0,1.62-.46,1.62-1.37Z"/><path class="cls-3" d="M105,130c0,.16-.38,.97-1.15,2.41l-1.45,2.71c-.06,.11-.12,.17-.19,.17h-1.18c-.05,0-.11-.06-.16-.17-.01-.02-.48-.9-1.39-2.62-.79-1.48-1.18-2.29-1.18-2.43,0-.31,.01-.77,.03-1.39s.03-1.08,.03-1.39c0-.14,.05-.22,.14-.22,.07,0,.18,0,.33,.02s.25,.02,.33,.02c.07,0,.18,0,.32-.02s.25-.02,.32-.02c.09,0,.13,.04,.13,.11,0,.32-.02,.79-.06,1.43s-.06,1.12-.06,1.44c0,.27,.61,1.45,1.82,3.55,.32-.55,.67-1.17,1.04-1.88,.54-1.02,.81-1.62,.81-1.8,0-.3,0-.76-.03-1.37s-.03-1.06-.03-1.36c0-.08,.04-.12,.13-.12,.07,0,.18,0,.33,.02s.25,.02,.32,.02,.18,0,.32-.02,.25-.02,.32-.02c.09,0,.13,.04,.15,.11,0-.03,0,.05,0,.22,0,.29,0,.72,.01,1.3s.01,1.01,.01,1.3Z"/><path class="cls-3" d="M111.52,134.11c0,.06-.02,.15-.05,.27-.04,.15-.06,.24-.06,.27-.01,.14-.04,.35-.08,.62-.02,.07-.07,.11-.15,.11-.04,0-.11,0-.22-.02-.48-.07-1.22-.11-2.23-.11-.29,0-.71,0-1.29,.02s-1,.02-1.29,.02c-.13,0-.19-.06-.19-.17,0-.44,.02-1.09,.07-1.97s.07-1.53,.07-1.97-.02-1.28-.07-2.49c0-.31-.03-.78-.06-1.4v-.08c0-.09,.04-.13,.15-.13,.27,0,.68,0,1.23,.02s.96,.02,1.23,.02,.65,0,1.17-.02,.91-.02,1.17-.02c.18,0,.28,.06,.3,.17,.08,.52,.12,.84,.12,.96,0,.09-.04,.13-.13,.13-.33,0-.83-.02-1.51-.06s-1.18-.06-1.52-.06c-.32,0-.52,.04-.61,.13s-.13,.3-.13,.64v.87c0,.24,0,.38,.02,.42,.04,.12,.14,.18,.3,.18,.05,0,.11,0,.2,0h.2c.77,0,1.45-.01,2.06-.04,.24,0,.52-.03,.84-.06,.08,0,.12,.03,.12,.11,0,.12-.01,.32-.04,.57s-.04,.45-.04,.58c0,.07-.06,.11-.18,.11-.05,0-.22-.01-.52-.04-.22-.02-.71-.04-1.48-.04-.64,0-1.05,0-1.22,.02-.16,.01-.25,.09-.27,.25,0-.03,0,.12,0,.45v.87c0,.41,.06,.66,.19,.76,.1,.08,.34,.12,.73,.12h.64c.27,0,1.04-.05,2.3-.15h.09c.08-.01,.12,.04,.12,.14Z"/><path class="cls-3" d="M119.64,131.13c0,1.1-.31,2.05-.94,2.85-.68,.87-1.55,1.31-2.61,1.31-.2,0-.51,0-.92-.02s-.71-.02-.92-.02c-.18,0-.46,0-.83,.02s-.65,.02-.83,.02c-.1,0-.15-.05-.15-.15,0-.43,.02-1.07,.05-1.93s.05-1.5,.05-1.93c0-.45-.02-1.13-.05-2.04s-.05-1.59-.05-2.04c0-.08,.05-.12,.15-.12,.14,0,.36,0,.65,0s.5,0,.65,0c.13,0,.34,0,.61,0s.48,0,.62,0c1.36,0,2.37,.26,3.03,.77,.48,.37,.85,.86,1.11,1.48,.25,.58,.37,1.18,.37,1.82Zm-1.44,0c0-.84-.24-1.53-.72-2.06-.5-.55-1.17-.83-2-.83-.69,0-.97,0-.84-.01-.46,.02-.69,.11-.69,.25,0,.3,0,.75-.02,1.35s-.02,1.05-.02,1.35,0,.74,.02,1.34,.02,1.04,.02,1.34c0,.15,.23,.23,.7,.26-.06,0,.22,0,.86,0,.45,0,.81-.05,1.07-.14,.33-.12,.62-.33,.88-.65,.49-.59,.73-1.32,.73-2.19Z"/></g></g><g><rect class="cls-22" x="130.81" y="140.22" width="19.92" height=".91" rx=".45" ry=".45"/><path class="cls-22" d="M131.42,140.45c0-5.17,4.19-9.36,9.36-9.36s9.36,4.19,9.36,9.36"/><g><line class="cls-9" x1="140.77" y1="129.34" x2="140.77" y2="133.02"/><line class="cls-9" x1="142.61" y1="129.22" x2="138.93" y2="129.22"/></g><polygon class="cls-22" points="150.73 146.66 130.81 146.66 131.65 142.46 149.9 142.46 150.73 146.66"/><g><line class="cls-6" x1="133.77" y1="141.12" x2="133.77" y2="142.81"/><line class="cls-6" x1="147.78" y1="140.93" x2="147.78" y2="142.62"/></g></g></svg>