<svg width="44" height="44" viewBox="0 0 44 44" fill="none" xmlns="http://www.w3.org/2000/svg">
<g clip-path="url(#clip0_533_5196)">
<path d="M7.645 20.1666C7.55333 20.1666 7.44333 20.1666 7.33333 20.1666H7.645ZM24.585 9.16663H16.5V12.8333H23.0817L26.7483 16.5H20.1667L12.8333 20.1666L9.16667 16.5H0V20.1666H7.33333C3.28167 20.1666 0 23.4483 0 27.5C0 31.5516 3.28167 34.8333 7.33333 34.8333C11.385 34.8333 14.6667 31.5516 14.6667 27.5L18.3333 31.1666H23.8333L30.2317 19.9833L32.0833 21.835C30.415 23.1733 29.3333 25.2083 29.3333 27.5C29.3333 31.5516 32.615 34.8333 36.6667 34.8333C40.7183 34.8333 44 31.5516 44 27.5C44 23.4483 40.7183 20.1666 36.6667 20.1666C36.3367 20.1666 36.0067 20.2216 35.695 20.2583L31.9183 16.5H36.6667V11L29.8467 14.41L24.585 9.16663ZM36.6667 31.1666C34.65 31.1666 33 29.5166 33 27.5C33 25.4833 34.65 23.8333 36.6667 23.8333C38.6833 23.8333 40.3333 25.4833 40.3333 27.5C40.3333 29.5166 38.6833 31.1666 36.6667 31.1666ZM7.33333 31.1666C5.31667 31.1666 3.66667 29.5166 3.66667 27.5C3.66667 25.4833 5.31667 23.8333 7.33333 23.8333C9.35 23.8333 11 25.4833 11 27.5C11 29.5166 9.35 31.1666 7.33333 31.1666Z" fill="#4A4A4A"/>
</g>
<defs>
<clipPath id="clip0_533_5196">
<rect width="44" height="44" fill="white"/>
</clipPath>
</defs>
</svg>
