<svg width="250" height="68" viewBox="0 0 250 68" fill="none" xmlns="http://www.w3.org/2000/svg">
<g clip-path="url(#clip0_150_227)">
<path d="M31.94 15.98C31.94 6.51 25.58 0 16.03 0C6.56 0 0.0500031 6.51 0.0500031 15.98C0.0500031 25.53 6.56 31.89 16.03 31.89C25.58 31.9 31.94 25.53 31.94 15.98ZM9.08 15.98C9.08 11.76 11.82 8.88 16.04 8.88C20.18 8.88 23 11.77 23 15.98C23 20.27 20.19 22.94 16.04 22.94C11.81 22.94 9.08 20.28 9.08 15.98Z" fill="current"/>
<path d="M32.39 34.34C22.62 34.34 15.44 41.3 15.44 50.62C15.44 60.54 22.03 67.42 32.09 67.42C42.08 67.42 49.04 60.54 49.04 50.62C49.04 41.29 42.01 34.34 32.39 34.34ZM32.17 58.32C27.73 58.32 25.14 55.43 25.14 51.22C25.14 46.78 27.66 43.89 32.1 43.89C36.61 43.89 39.28 47.07 39.28 51.22C39.27 55.28 36.61 58.17 32.17 58.32Z" fill="current"/>
<path d="M42.82 0.589966V5.54997H35.05V13.32H42.82V16.2V18.8H35.05V26.57H42.82V32.75H52.52V25.98V16.2V0.589966H42.82Z" fill="current"/>
<path d="M159.38 15.98C159.38 6.51 153.02 0 143.47 0C134 0 127.49 6.51 127.49 15.98C127.49 25.53 134 31.89 143.47 31.89C153.01 31.9 159.38 25.53 159.38 15.98ZM136.51 15.98C136.51 11.76 139.25 8.88 143.47 8.88C147.61 8.88 150.43 11.77 150.43 15.98C150.43 20.27 147.62 22.94 143.47 22.94C139.25 22.94 136.51 20.28 136.51 15.98Z" fill="current"/>
<path d="M170.25 0.589966V5.54997H162.48V13.32H170.25V16.2V18.8H162.48V26.57H170.25V32.75H179.95V25.98V16.2V0.589966H170.25Z" fill="current"/>
<path d="M159.82 34.34C150.05 34.34 142.87 41.3 142.87 50.62C142.87 60.54 149.46 67.42 159.52 67.42C169.51 67.42 176.47 60.54 176.47 50.62C176.47 41.29 169.44 34.34 159.82 34.34ZM159.6 58.32C155.16 58.32 152.57 55.43 152.57 51.22C152.57 46.78 155.09 43.89 159.53 43.89C164.04 43.89 166.71 47.07 166.71 51.22C166.7 55.28 164.04 58.17 159.6 58.32Z" fill="current"/>
<path d="M85.52 14.42V9.03002V6.65002H75.97V9.03002V14.42V14.43H63.09V22.64H75.38C74.12 31.3 70.64 37.37 63.09 41V50.92C69.79 48.97 76.14 44.56 79.49 38.96C83.54 41.32 86.47 44.73 88.18 49.75L97.88 50.92C97.88 50.92 97.62 48.55 96.37 45.31C96.35 45.25 96.33 45.2 96.31 45.14C96.18 44.81 96.04 44.48 95.89 44.14C95.81 43.96 95.73 43.78 95.65 43.6C95.55 43.39 95.45 43.18 95.35 42.96C95.22 42.69 95.08 42.41 94.94 42.14C94.84 41.95 94.74 41.76 94.63 41.57C94.54 41.41 94.45 41.25 94.36 41.09C92.16 37.29 88.61 33.2 82.95 30.41C84.12 26.82 85.31 22.65 85.31 22.65H97.88V14.44L85.52 14.42Z" fill="current"/>
<path d="M122.52 34.86V26.71H113.12V10.36H103.43V43.71V51.06V58.39H113.12V43.71V34.86H122.52Z" fill="current"/>
<path d="M212.95 9.03004V6.67004H203.4V14.43H190.53V22.64H202.82C201.56 31.3 198.08 37.37 190.53 40.99V50.91C197.23 48.96 203.58 44.55 206.93 38.95C210.98 41.31 213.91 44.72 215.62 49.74L225.32 50.91C225.32 50.91 225.06 48.54 223.81 45.3C223.79 45.24 223.77 45.19 223.75 45.13C223.62 44.8 223.48 44.47 223.33 44.13C223.25 43.95 223.17 43.77 223.09 43.59C222.99 43.38 222.89 43.16 222.78 42.94C222.65 42.67 222.51 42.4 222.37 42.13C222.27 41.94 222.17 41.76 222.07 41.57C221.98 41.41 221.89 41.25 221.8 41.09C219.6 37.29 216.05 33.2 210.39 30.41C211.56 26.82 212.75 22.65 212.75 22.65H225.32V14.44H212.96V9.03004H212.95Z" fill="current"/>
<path d="M249.95 34.86V26.71H240.55V10.36H230.86V43.71V51.06V58.39H240.55V43.71V34.86H249.95Z" fill="current"/>
</g>
<defs>
<clipPath id="clip0_150_227">
<rect width="250" height="67.42" fill="current"/>
</clipPath>
</defs>
</svg>
